<svg width="188" height="50" viewBox="0 0 188 50" fill="none" xmlns="http://www.w3.org/2000/svg">
<rect width="188" height="50" rx="25" fill="#902876"/>
<path d="M52 31.25C51.5858 31.25 51.25 31.5858 51.25 32C51.25 32.4142 51.5858 32.75 52 32.75H58C58.9665 32.75 59.75 31.9665 59.75 31V19C59.75 18.0335 58.9665 17.25 58 17.25H52C51.5858 17.25 51.25 17.5858 51.25 18C51.25 18.4142 51.5858 18.75 52 18.75H58C58.1381 18.75 58.25 18.8619 58.25 19V31C58.25 31.1381 58.1381 31.25 58 31.25H52Z" fill="white"/>
<path fill-rule="evenodd" clip-rule="evenodd" d="M43.25 26.1152C43.25 26.8056 43.8096 27.3652 44.5 27.3652H49.1126C49.1191 27.4386 49.1259 27.512 49.1331 27.5854L49.1871 28.1413C49.2695 28.9894 50.1701 29.4973 50.9386 29.1291C52.5728 28.3459 54.1514 27.1706 55.4049 25.8618C55.8691 25.3771 55.8691 24.6128 55.4049 24.1281L55.3057 24.0245C54.0522 22.7158 52.5728 21.644 50.9386 20.8608C50.1701 20.4926 49.2695 21.0005 49.1871 21.8486L49.1331 22.4045C49.1259 22.4779 49.1191 22.5513 49.1126 22.6247H44.5C43.8096 22.6247 43.25 23.1843 43.25 23.8747V26.1152ZM50.5532 26.5307C50.5107 26.1537 50.1913 25.8652 49.808 25.8652H44.75V24.1247H49.808C50.2041 24.1247 50.5319 23.8167 50.5565 23.4214C50.5747 23.1305 50.5978 22.8399 50.626 22.5496L50.6417 22.3882C51.9466 23.0607 53.1342 23.9409 54.1577 24.995C53.7303 25.4351 53.2744 25.8448 52.7932 26.2219C52.122 26.7478 51.4018 27.21 50.6417 27.6017L50.626 27.4403C50.5978 27.15 50.5747 26.8594 50.5565 26.5685C50.5557 26.5558 50.5546 26.5432 50.5532 26.5307Z" fill="white"/>
<path d="M82.992 19.742V26.952C82.992 27.7547 82.7447 28.3987 82.25 28.884C81.7553 29.36 81.102 29.598 80.29 29.598C79.4687 29.598 78.8107 29.3553 78.316 28.87C77.8213 28.3753 77.574 27.7033 77.574 26.854H78.848C78.8573 27.33 78.9787 27.7173 79.212 28.016C79.4547 28.3147 79.814 28.464 80.29 28.464C80.766 28.464 81.1207 28.324 81.354 28.044C81.5873 27.7547 81.704 27.3907 81.704 26.952V19.742H82.992ZM88.8478 29.626C88.1292 29.626 87.4758 29.4627 86.8878 29.136C86.3092 28.8093 85.8518 28.3473 85.5158 27.75C85.1892 27.1433 85.0258 26.4433 85.0258 25.65C85.0258 24.866 85.1938 24.1753 85.5298 23.578C85.8752 22.9713 86.3418 22.5093 86.9298 22.192C87.5178 21.8653 88.1758 21.702 88.9038 21.702C89.6318 21.702 90.2898 21.8653 90.8778 22.192C91.4658 22.5093 91.9278 22.9667 92.2638 23.564C92.6092 24.1613 92.7818 24.8567 92.7818 25.65C92.7818 26.4433 92.6045 27.1433 92.2498 27.75C91.9045 28.3473 91.4332 28.8093 90.8358 29.136C90.2385 29.4627 89.5758 29.626 88.8478 29.626ZM88.8478 28.506C89.3052 28.506 89.7345 28.3987 90.1358 28.184C90.5372 27.9693 90.8592 27.6473 91.1018 27.218C91.3538 26.7887 91.4798 26.266 91.4798 25.65C91.4798 25.034 91.3585 24.5113 91.1158 24.082C90.8732 23.6527 90.5558 23.3353 90.1638 23.13C89.7718 22.9153 89.3472 22.808 88.8898 22.808C88.4232 22.808 87.9938 22.9153 87.6018 23.13C87.2192 23.3353 86.9112 23.6527 86.6778 24.082C86.4445 24.5113 86.3278 25.034 86.3278 25.65C86.3278 26.2753 86.4398 26.8027 86.6638 27.232C86.8972 27.6613 87.2052 27.9833 87.5878 28.198C87.9705 28.4033 88.3905 28.506 88.8478 28.506ZM95.1149 20.582C94.8722 20.582 94.6669 20.498 94.4989 20.33C94.3309 20.162 94.2469 19.9567 94.2469 19.714C94.2469 19.4713 94.3309 19.266 94.4989 19.098C94.6669 18.93 94.8722 18.846 95.1149 18.846C95.3482 18.846 95.5442 18.93 95.7029 19.098C95.8709 19.266 95.9549 19.4713 95.9549 19.714C95.9549 19.9567 95.8709 20.162 95.7029 20.33C95.5442 20.498 95.3482 20.582 95.1149 20.582ZM95.7309 21.828V29.5H94.4569V21.828H95.7309ZM101.64 21.688C102.574 21.688 103.33 21.9727 103.908 22.542C104.487 23.102 104.776 23.914 104.776 24.978V29.5H103.516V25.16C103.516 24.3947 103.325 23.8113 102.942 23.41C102.56 22.9993 102.037 22.794 101.374 22.794C100.702 22.794 100.166 23.004 99.7642 23.424C99.3722 23.844 99.1762 24.4553 99.1762 25.258V29.5H97.9022V21.828H99.1762V22.92C99.4282 22.528 99.7689 22.2247 100.198 22.01C100.637 21.7953 101.118 21.688 101.64 21.688ZM111.864 23.074C112.088 22.6353 112.405 22.2947 112.816 22.052C113.236 21.8093 113.744 21.688 114.342 21.688V23.004H114.006C112.578 23.004 111.864 23.7787 111.864 25.328V29.5H110.59V21.828H111.864V23.074ZM119.158 29.626C118.44 29.626 117.786 29.4627 117.198 29.136C116.62 28.8093 116.162 28.3473 115.826 27.75C115.5 27.1433 115.336 26.4433 115.336 25.65C115.336 24.866 115.504 24.1753 115.84 23.578C116.186 22.9713 116.652 22.5093 117.24 22.192C117.828 21.8653 118.486 21.702 119.214 21.702C119.942 21.702 120.6 21.8653 121.188 22.192C121.776 22.5093 122.238 22.9667 122.574 23.564C122.92 24.1613 123.092 24.8567 123.092 25.65C123.092 26.4433 122.915 27.1433 122.56 27.75C122.215 28.3473 121.744 28.8093 121.146 29.136C120.549 29.4627 119.886 29.626 119.158 29.626ZM119.158 28.506C119.616 28.506 120.045 28.3987 120.446 28.184C120.848 27.9693 121.17 27.6473 121.412 27.218C121.664 26.7887 121.79 26.266 121.79 25.65C121.79 25.034 121.669 24.5113 121.426 24.082C121.184 23.6527 120.866 23.3353 120.474 23.13C120.082 22.9153 119.658 22.808 119.2 22.808C118.734 22.808 118.304 22.9153 117.912 23.13C117.53 23.3353 117.222 23.6527 116.988 24.082C116.755 24.5113 116.638 25.034 116.638 25.65C116.638 26.2753 116.75 26.8027 116.974 27.232C117.208 27.6613 117.516 27.9833 117.898 28.198C118.281 28.4033 118.701 28.506 119.158 28.506ZM128.113 29.626C127.395 29.626 126.741 29.4627 126.153 29.136C125.575 28.8093 125.117 28.3473 124.781 27.75C124.455 27.1433 124.291 26.4433 124.291 25.65C124.291 24.866 124.459 24.1753 124.795 23.578C125.141 22.9713 125.607 22.5093 126.195 22.192C126.783 21.8653 127.441 21.702 128.169 21.702C128.897 21.702 129.555 21.8653 130.143 22.192C130.731 22.5093 131.193 22.9667 131.529 23.564C131.875 24.1613 132.047 24.8567 132.047 25.65C132.047 26.4433 131.87 27.1433 131.515 27.75C131.17 28.3473 130.699 28.8093 130.101 29.136C129.504 29.4627 128.841 29.626 128.113 29.626ZM128.113 28.506C128.571 28.506 129 28.3987 129.401 28.184C129.803 27.9693 130.125 27.6473 130.367 27.218C130.619 26.7887 130.745 26.266 130.745 25.65C130.745 25.034 130.624 24.5113 130.381 24.082C130.139 23.6527 129.821 23.3353 129.429 23.13C129.037 22.9153 128.613 22.808 128.155 22.808C127.689 22.808 127.259 22.9153 126.867 23.13C126.485 23.3353 126.177 23.6527 125.943 24.082C125.71 24.5113 125.593 25.034 125.593 25.65C125.593 26.2753 125.705 26.8027 125.929 27.232C126.163 27.6613 126.471 27.9833 126.853 28.198C127.236 28.4033 127.656 28.506 128.113 28.506ZM142.949 21.688C143.546 21.688 144.078 21.814 144.545 22.066C145.011 22.3087 145.38 22.6773 145.651 23.172C145.921 23.6667 146.057 24.2687 146.057 24.978V29.5H144.797V25.16C144.797 24.3947 144.605 23.8113 144.223 23.41C143.849 22.9993 143.341 22.794 142.697 22.794C142.034 22.794 141.507 23.0087 141.115 23.438C140.723 23.858 140.527 24.4693 140.527 25.272V29.5H139.267V25.16C139.267 24.3947 139.075 23.8113 138.693 23.41C138.319 22.9993 137.811 22.794 137.167 22.794C136.504 22.794 135.977 23.0087 135.585 23.438C135.193 23.858 134.997 24.4693 134.997 25.272V29.5H133.723V21.828H134.997V22.934C135.249 22.5327 135.585 22.2247 136.005 22.01C136.434 21.7953 136.905 21.688 137.419 21.688C138.063 21.688 138.632 21.8327 139.127 22.122C139.621 22.4113 139.99 22.836 140.233 23.396C140.447 22.8547 140.802 22.4347 141.297 22.136C141.791 21.8373 142.342 21.688 142.949 21.688Z" fill="white"/>
</svg>
