<svg width="250" height="50" viewBox="0 0 250 50" fill="none" xmlns="http://www.w3.org/2000/svg">
<rect width="250" height="50" rx="25" fill="#902876"/>
<path d="M94.5 31.25C94.0858 31.25 93.75 31.5858 93.75 32C93.75 32.4142 94.0858 32.75 94.5 32.75H100.5C101.466 32.75 102.25 31.9665 102.25 31V19C102.25 18.0335 101.466 17.25 100.5 17.25H94.5C94.0858 17.25 93.75 17.5858 93.75 18C93.75 18.4142 94.0858 18.75 94.5 18.75H100.5C100.638 18.75 100.75 18.8619 100.75 19V31C100.75 31.1381 100.638 31.25 100.5 31.25H94.5Z" fill="white"/>
<path fill-rule="evenodd" clip-rule="evenodd" d="M97.0031 27.3652C97.6934 27.3652 98.2531 26.8056 98.2531 26.1152V23.8747C98.2531 23.1843 97.6934 22.6247 97.0031 22.6247H92.3905C92.384 22.5513 92.3771 22.4779 92.37 22.4045L92.316 21.8486C92.2335 21.0005 91.3329 20.4926 90.5645 20.8608C88.9303 21.644 87.4508 22.7158 86.1974 24.0245L86.0982 24.1281C85.6339 24.6128 85.6339 25.3771 86.0981 25.8618L86.1974 25.9654C87.4508 27.2741 88.9303 28.3459 90.5645 29.1291C91.3329 29.4973 92.2335 28.9894 92.316 28.1413L92.37 27.5854C92.3771 27.512 92.384 27.4386 92.3905 27.3652H97.0031ZM91.6951 25.8652C91.4287 25.8652 91.1933 26.0045 91.0601 26.216C90.9952 26.319 90.9546 26.4391 90.9466 26.5685C90.9284 26.8594 90.9052 27.15 90.877 27.4403L90.8613 27.6017C89.8253 27.0677 88.8632 26.4028 87.9984 25.6239C87.774 25.4218 87.5562 25.2121 87.3454 24.995C88.3689 23.9409 89.5565 23.0607 90.8613 22.3882L90.877 22.5496C90.9052 22.8399 90.9284 23.1305 90.9466 23.4214C90.9712 23.8167 91.299 24.1247 91.6951 24.1247H96.7531V25.8652H91.6951Z" fill="white"/>
<path d="M121.852 28.464H125.268V29.5H120.578V19.742H121.852V28.464ZM129.967 29.626C129.248 29.626 128.595 29.4627 128.007 29.136C127.428 28.8093 126.971 28.3473 126.635 27.75C126.308 27.1433 126.145 26.4433 126.145 25.65C126.145 24.866 126.313 24.1753 126.649 23.578C126.994 22.9713 127.461 22.5093 128.049 22.192C128.637 21.8653 129.295 21.702 130.023 21.702C130.751 21.702 131.409 21.8653 131.997 22.192C132.585 22.5093 133.047 22.9667 133.383 23.564C133.728 24.1613 133.901 24.8567 133.901 25.65C133.901 26.4433 133.724 27.1433 133.369 27.75C133.024 28.3473 132.552 28.8093 131.955 29.136C131.358 29.4627 130.695 29.626 129.967 29.626ZM129.967 28.506C130.424 28.506 130.854 28.3987 131.255 28.184C131.656 27.9693 131.978 27.6473 132.221 27.218C132.473 26.7887 132.599 26.266 132.599 25.65C132.599 25.034 132.478 24.5113 132.235 24.082C131.992 23.6527 131.675 23.3353 131.283 23.13C130.891 22.9153 130.466 22.808 130.009 22.808C129.542 22.808 129.113 22.9153 128.721 23.13C128.338 23.3353 128.03 23.6527 127.797 24.082C127.564 24.5113 127.447 25.034 127.447 25.65C127.447 26.2753 127.559 26.8027 127.783 27.232C128.016 27.6613 128.324 27.9833 128.707 28.198C129.09 28.4033 129.51 28.506 129.967 28.506ZM138.74 21.702C139.403 21.702 139.981 21.8467 140.476 22.136C140.98 22.4253 141.353 22.7893 141.596 23.228V21.828H142.884V29.668C142.884 30.368 142.735 30.9887 142.436 31.53C142.137 32.0807 141.708 32.51 141.148 32.818C140.597 33.126 139.953 33.28 139.216 33.28C138.208 33.28 137.368 33.042 136.696 32.566C136.024 32.09 135.627 31.4413 135.506 30.62H136.766C136.906 31.0867 137.195 31.46 137.634 31.74C138.073 32.0293 138.6 32.174 139.216 32.174C139.916 32.174 140.485 31.9547 140.924 31.516C141.372 31.0773 141.596 30.4613 141.596 29.668V28.058C141.344 28.506 140.971 28.8793 140.476 29.178C139.981 29.4767 139.403 29.626 138.74 29.626C138.059 29.626 137.438 29.458 136.878 29.122C136.327 28.786 135.893 28.3147 135.576 27.708C135.259 27.1013 135.1 26.4107 135.1 25.636C135.1 24.852 135.259 24.166 135.576 23.578C135.893 22.9807 136.327 22.5187 136.878 22.192C137.438 21.8653 138.059 21.702 138.74 21.702ZM141.596 25.65C141.596 25.0713 141.479 24.5673 141.246 24.138C141.013 23.7087 140.695 23.382 140.294 23.158C139.902 22.9247 139.468 22.808 138.992 22.808C138.516 22.808 138.082 22.92 137.69 23.144C137.298 23.368 136.985 23.6947 136.752 24.124C136.519 24.5533 136.402 25.0573 136.402 25.636C136.402 26.224 136.519 26.7373 136.752 27.176C136.985 27.6053 137.298 27.9367 137.69 28.17C138.082 28.394 138.516 28.506 138.992 28.506C139.468 28.506 139.902 28.394 140.294 28.17C140.695 27.9367 141.013 27.6053 141.246 27.176C141.479 26.7373 141.596 26.2287 141.596 25.65ZM148.383 29.626C147.664 29.626 147.011 29.4627 146.423 29.136C145.844 28.8093 145.387 28.3473 145.051 27.75C144.724 27.1433 144.561 26.4433 144.561 25.65C144.561 24.866 144.729 24.1753 145.065 23.578C145.41 22.9713 145.877 22.5093 146.465 22.192C147.053 21.8653 147.711 21.702 148.439 21.702C149.167 21.702 149.825 21.8653 150.413 22.192C151.001 22.5093 151.463 22.9667 151.799 23.564C152.144 24.1613 152.317 24.8567 152.317 25.65C152.317 26.4433 152.14 27.1433 151.785 27.75C151.44 28.3473 150.968 28.8093 150.371 29.136C149.774 29.4627 149.111 29.626 148.383 29.626ZM148.383 28.506C148.84 28.506 149.27 28.3987 149.671 28.184C150.072 27.9693 150.394 27.6473 150.637 27.218C150.889 26.7887 151.015 26.266 151.015 25.65C151.015 25.034 150.894 24.5113 150.651 24.082C150.408 23.6527 150.091 23.3353 149.699 23.13C149.307 22.9153 148.882 22.808 148.425 22.808C147.958 22.808 147.529 22.9153 147.137 23.13C146.754 23.3353 146.446 23.6527 146.213 24.082C145.98 24.5113 145.863 25.034 145.863 25.65C145.863 26.2753 145.975 26.8027 146.199 27.232C146.432 27.6613 146.74 27.9833 147.123 28.198C147.506 28.4033 147.926 28.506 148.383 28.506ZM160.796 21.828V29.5H159.522V28.366C159.279 28.758 158.939 29.066 158.5 29.29C158.071 29.5047 157.595 29.612 157.072 29.612C156.475 29.612 155.938 29.4907 155.462 29.248C154.986 28.996 154.608 28.6227 154.328 28.128C154.057 27.6333 153.922 27.0313 153.922 26.322V21.828H155.182V26.154C155.182 26.91 155.373 27.4933 155.756 27.904C156.139 28.3053 156.661 28.506 157.324 28.506C158.005 28.506 158.542 28.296 158.934 27.876C159.326 27.456 159.522 26.8447 159.522 26.042V21.828H160.796ZM164.501 22.878V27.4C164.501 27.7733 164.58 28.0393 164.739 28.198C164.898 28.3473 165.173 28.422 165.565 28.422H166.503V29.5H165.355C164.646 29.5 164.114 29.3367 163.759 29.01C163.404 28.6833 163.227 28.1467 163.227 27.4V22.878H162.233V21.828H163.227V19.896H164.501V21.828H166.503V22.878H164.501Z" fill="white"/>
</svg>
