<svg width="117" height="42" viewBox="0 0 117 42" fill="none" xmlns="http://www.w3.org/2000/svg">
<rect width="117" height="42" rx="21" fill="#902876"/>
<path fill-rule="evenodd" clip-rule="evenodd" d="M44.0312 21C44.0312 21.2383 43.902 21.4579 43.6937 21.5736L41.6967 22.6832C37.7492 24.8762 33.5879 26.6601 29.2777 28.007L28.6957 28.1889C28.4965 28.2511 28.2795 28.2149 28.1113 28.0913C27.9431 27.9675 27.8438 27.7713 27.8438 27.5625V22.5312C27.8438 22.1891 28.1066 21.9044 28.4477 21.8771L28.6466 21.8612C30.5291 21.7106 32.3971 21.4225 34.2358 20.9997C32.3713 20.5711 30.4766 20.2809 28.5673 20.1323L28.449 20.123C28.1074 20.0964 27.8438 19.8114 27.8438 19.4688V14.4375C27.8438 14.2287 27.9431 14.0324 28.1113 13.9088C28.2795 13.7851 28.4965 13.7489 28.6957 13.8111L29.2777 13.993C33.5879 15.3399 37.7492 17.1238 41.6967 19.3168L43.6937 20.4264C43.902 20.5421 44.0312 20.7617 44.0312 21ZM42.0237 21L41.0592 20.4642C37.2724 18.3604 33.2849 16.6408 29.1562 15.3308V18.8646C31.7201 19.0959 34.256 19.5739 36.7288 20.2923L36.9955 20.3698C37.2762 20.4513 37.469 20.7084 37.4687 21.0006C37.4685 21.2928 37.2751 21.5496 36.9943 21.6305L36.6526 21.7291C34.2039 22.4353 31.6938 22.9061 29.1562 23.135V26.6692C33.2849 25.3592 37.2724 23.6396 41.0592 21.5359L42.0237 21Z" fill="white"/>
<path d="M60.172 25.598C59.528 25.598 58.9493 25.486 58.436 25.262C57.932 25.0287 57.5353 24.7113 57.246 24.31C56.9567 23.8993 56.8073 23.428 56.798 22.896H58.156C58.2027 23.3533 58.3893 23.7407 58.716 24.058C59.052 24.366 59.5373 24.52 60.172 24.52C60.7787 24.52 61.2547 24.3707 61.6 24.072C61.9547 23.764 62.132 23.372 62.132 22.896C62.132 22.5227 62.0293 22.2193 61.824 21.986C61.6187 21.7527 61.362 21.5753 61.054 21.454C60.746 21.3327 60.3307 21.202 59.808 21.062C59.164 20.894 58.646 20.726 58.254 20.558C57.8713 20.39 57.54 20.1287 57.26 19.774C56.9893 19.41 56.854 18.9247 56.854 18.318C56.854 17.786 56.9893 17.3147 57.26 16.904C57.5307 16.4933 57.9087 16.176 58.394 15.952C58.8887 15.728 59.4533 15.616 60.088 15.616C61.0027 15.616 61.7493 15.8447 62.328 16.302C62.916 16.7593 63.2473 17.366 63.322 18.122H61.922C61.8753 17.7487 61.6793 17.422 61.334 17.142C60.9887 16.8527 60.5313 16.708 59.962 16.708C59.43 16.708 58.996 16.848 58.66 17.128C58.324 17.3987 58.156 17.7813 58.156 18.276C58.156 18.6307 58.254 18.92 58.45 19.144C58.6553 19.368 58.9027 19.5407 59.192 19.662C59.4907 19.774 59.906 19.9047 60.438 20.054C61.082 20.2313 61.6 20.4087 61.992 20.586C62.384 20.754 62.72 21.02 63 21.384C63.28 21.7387 63.42 22.224 63.42 22.84C63.42 23.316 63.294 23.764 63.042 24.184C62.79 24.604 62.4167 24.9447 61.922 25.206C61.4273 25.4673 60.844 25.598 60.172 25.598ZM72.2948 21.37C72.2948 21.6127 72.2808 21.8693 72.2528 22.14H66.1208C66.1675 22.896 66.4241 23.4887 66.8908 23.918C67.3668 24.338 67.9408 24.548 68.6128 24.548C69.1635 24.548 69.6208 24.422 69.9848 24.17C70.3581 23.9087 70.6195 23.5633 70.7688 23.134H72.1408C71.9355 23.8713 71.5248 24.4733 70.9088 24.94C70.2928 25.3973 69.5275 25.626 68.6128 25.626C67.8848 25.626 67.2315 25.4627 66.6528 25.136C66.0835 24.8093 65.6355 24.3473 65.3088 23.75C64.9821 23.1433 64.8188 22.4433 64.8188 21.65C64.8188 20.8567 64.9775 20.1613 65.2948 19.564C65.6121 18.9667 66.0555 18.5093 66.6248 18.192C67.2035 17.8653 67.8661 17.702 68.6128 17.702C69.3408 17.702 69.9848 17.8607 70.5448 18.178C71.1048 18.4953 71.5341 18.934 71.8328 19.494C72.1408 20.0447 72.2948 20.67 72.2948 21.37ZM70.9788 21.104C70.9788 20.6187 70.8715 20.2033 70.6568 19.858C70.4421 19.5033 70.1481 19.2373 69.7748 19.06C69.4108 18.8733 69.0048 18.78 68.5568 18.78C67.9128 18.78 67.3621 18.9853 66.9048 19.396C66.4568 19.8067 66.2001 20.376 66.1348 21.104H70.9788ZM77.7144 17.688C78.6478 17.688 79.4038 17.9727 79.9824 18.542C80.5611 19.102 80.8504 19.914 80.8504 20.978V25.5H79.5904V21.16C79.5904 20.3947 79.3991 19.8113 79.0164 19.41C78.6338 18.9993 78.1111 18.794 77.4484 18.794C76.7764 18.794 76.2398 19.004 75.8384 19.424C75.4464 19.844 75.2504 20.4553 75.2504 21.258V25.5H73.9764V17.828H75.2504V18.92C75.5024 18.528 75.8431 18.2247 76.2724 18.01C76.7111 17.7953 77.1918 17.688 77.7144 17.688ZM82.4555 21.636C82.4555 20.852 82.6142 20.166 82.9315 19.578C83.2488 18.9807 83.6828 18.5187 84.2335 18.192C84.7935 17.8653 85.4188 17.702 86.1095 17.702C86.7068 17.702 87.2622 17.842 87.7755 18.122C88.2888 18.3927 88.6808 18.752 88.9515 19.2V15.14H90.2395V25.5H88.9515V24.058C88.6995 24.5153 88.3262 24.8933 87.8315 25.192C87.3368 25.4813 86.7582 25.626 86.0955 25.626C85.4142 25.626 84.7935 25.458 84.2335 25.122C83.6828 24.786 83.2488 24.3147 82.9315 23.708C82.6142 23.1013 82.4555 22.4107 82.4555 21.636ZM88.9515 21.65C88.9515 21.0713 88.8348 20.5673 88.6015 20.138C88.3682 19.7087 88.0508 19.382 87.6495 19.158C87.2575 18.9247 86.8235 18.808 86.3475 18.808C85.8715 18.808 85.4375 18.92 85.0455 19.144C84.6535 19.368 84.3408 19.6947 84.1075 20.124C83.8742 20.5533 83.7575 21.0573 83.7575 21.636C83.7575 22.224 83.8742 22.7373 84.1075 23.176C84.3408 23.6053 84.6535 23.9367 85.0455 24.17C85.4375 24.394 85.8715 24.506 86.3475 24.506C86.8235 24.506 87.2575 24.394 87.6495 24.17C88.0508 23.9367 88.3682 23.6053 88.6015 23.176C88.8348 22.7373 88.9515 22.2287 88.9515 21.65Z" fill="white"/>
</svg>
