<svg width="203" height="42" viewBox="0 0 203 42" fill="none" xmlns="http://www.w3.org/2000/svg">
<rect width="203" height="42" rx="21" fill="#902876"/>
<path fill-rule="evenodd" clip-rule="evenodd" d="M27.1526 25.2167C26.9587 25.0156 26.9134 24.7139 27.0395 24.4647L27.6534 23.2525C29.1061 20.3836 32.0487 18.5752 35.2645 18.5752H35.5662C35.5883 18.0971 35.6167 17.6193 35.6515 17.1418L35.7109 16.3275C35.7591 15.6653 36.4975 15.2951 37.057 15.6526C38.8925 16.8254 40.4881 18.3366 41.7589 20.1057L42.158 20.6612C42.3224 20.89 42.3224 21.1982 42.158 21.4269L41.7589 21.9825C40.4881 23.7515 38.8925 25.2627 37.057 26.4356C36.4975 26.7931 35.7591 26.4229 35.7109 25.7607L35.6515 24.9463C35.6099 24.3761 35.5774 23.8053 35.5542 23.2343C33.6731 23.18 31.7943 23.5597 30.0676 24.3566L27.9 25.3571C27.6464 25.4741 27.3465 25.4178 27.1526 25.2167ZM29.0936 23.3606L29.5175 23.1649C31.6273 22.1912 33.9422 21.7802 36.2391 21.9566C36.5736 21.9823 36.8349 22.2562 36.8448 22.5915C36.8671 23.3452 36.9057 24.0985 36.9606 24.851L36.9653 24.9161C38.4033 23.8997 39.6635 22.6498 40.693 21.2167L40.8169 21.0441L40.693 20.8714C39.6635 19.4383 38.4033 18.1885 36.9653 17.1721L36.9606 17.2372C36.9116 17.9089 36.8756 18.5812 36.8526 19.2539C36.8405 19.6074 36.5504 19.8877 36.1967 19.8877H35.2645C32.7293 19.8877 30.3949 21.2159 29.0936 23.3606Z" fill="white"/>
<path d="M60.172 25.598C59.528 25.598 58.9493 25.486 58.436 25.262C57.932 25.0287 57.5353 24.7113 57.246 24.31C56.9567 23.8993 56.8073 23.428 56.798 22.896H58.156C58.2027 23.3533 58.3893 23.7407 58.716 24.058C59.052 24.366 59.5373 24.52 60.172 24.52C60.7787 24.52 61.2547 24.3707 61.6 24.072C61.9547 23.764 62.132 23.372 62.132 22.896C62.132 22.5227 62.0293 22.2193 61.824 21.986C61.6187 21.7527 61.362 21.5753 61.054 21.454C60.746 21.3327 60.3307 21.202 59.808 21.062C59.164 20.894 58.646 20.726 58.254 20.558C57.8713 20.39 57.54 20.1287 57.26 19.774C56.9893 19.41 56.854 18.9247 56.854 18.318C56.854 17.786 56.9893 17.3147 57.26 16.904C57.5307 16.4933 57.9087 16.176 58.394 15.952C58.8887 15.728 59.4533 15.616 60.088 15.616C61.0027 15.616 61.7493 15.8447 62.328 16.302C62.916 16.7593 63.2473 17.366 63.322 18.122H61.922C61.8753 17.7487 61.6793 17.422 61.334 17.142C60.9887 16.8527 60.5313 16.708 59.962 16.708C59.43 16.708 58.996 16.848 58.66 17.128C58.324 17.3987 58.156 17.7813 58.156 18.276C58.156 18.6307 58.254 18.92 58.45 19.144C58.6553 19.368 58.9027 19.5407 59.192 19.662C59.4907 19.774 59.906 19.9047 60.438 20.054C61.082 20.2313 61.6 20.4087 61.992 20.586C62.384 20.754 62.72 21.02 63 21.384C63.28 21.7387 63.42 22.224 63.42 22.84C63.42 23.316 63.294 23.764 63.042 24.184C62.79 24.604 62.4167 24.9447 61.922 25.206C61.4273 25.4673 60.844 25.598 60.172 25.598ZM69.1028 17.688C69.6815 17.688 70.2041 17.814 70.6708 18.066C71.1375 18.3087 71.5015 18.6773 71.7628 19.172C72.0335 19.6667 72.1688 20.2687 72.1688 20.978V25.5H70.9088V21.16C70.9088 20.3947 70.7175 19.8113 70.3348 19.41C69.9521 18.9993 69.4295 18.794 68.7668 18.794C68.0948 18.794 67.5581 19.004 67.1568 19.424C66.7648 19.844 66.5688 20.4553 66.5688 21.258V25.5H65.2948V15.14H66.5688V18.92C66.8208 18.528 67.1661 18.2247 67.6048 18.01C68.0528 17.7953 68.5521 17.688 69.1028 17.688ZM73.7739 21.636C73.7739 20.852 73.9325 20.166 74.2499 19.578C74.5672 18.9807 75.0012 18.5187 75.5519 18.192C76.1119 17.8653 76.7325 17.702 77.4139 17.702C78.0859 17.702 78.6692 17.8467 79.1639 18.136C79.6585 18.4253 80.0272 18.7893 80.2699 19.228V17.828H81.5579V25.5H80.2699V24.072C80.0179 24.52 79.6399 24.8933 79.1359 25.192C78.6412 25.4813 78.0625 25.626 77.3999 25.626C76.7185 25.626 76.1025 25.458 75.5519 25.122C75.0012 24.786 74.5672 24.3147 74.2499 23.708C73.9325 23.1013 73.7739 22.4107 73.7739 21.636ZM80.2699 21.65C80.2699 21.0713 80.1532 20.5673 79.9199 20.138C79.6865 19.7087 79.3692 19.382 78.9679 19.158C78.5759 18.9247 78.1419 18.808 77.6659 18.808C77.1899 18.808 76.7559 18.92 76.3639 19.144C75.9719 19.368 75.6592 19.6947 75.4259 20.124C75.1925 20.5533 75.0759 21.0573 75.0759 21.636C75.0759 22.224 75.1925 22.7373 75.4259 23.176C75.6592 23.6053 75.9719 23.9367 76.3639 24.17C76.7559 24.394 77.1899 24.506 77.6659 24.506C78.1419 24.506 78.5759 24.394 78.9679 24.17C79.3692 23.9367 79.6865 23.6053 79.9199 23.176C80.1532 22.7373 80.2699 22.2287 80.2699 21.65ZM84.9848 19.074C85.2088 18.6353 85.5261 18.2947 85.9368 18.052C86.3568 17.8093 86.8655 17.688 87.4628 17.688V19.004H87.1268C85.6988 19.004 84.9848 19.7787 84.9848 21.328V25.5H83.7108V17.828H84.9848V19.074ZM95.9335 21.37C95.9335 21.6127 95.9195 21.8693 95.8915 22.14H89.7595C89.8061 22.896 90.0628 23.4887 90.5295 23.918C91.0055 24.338 91.5795 24.548 92.2515 24.548C92.8021 24.548 93.2595 24.422 93.6235 24.17C93.9968 23.9087 94.2581 23.5633 94.4075 23.134H95.7795C95.5741 23.8713 95.1635 24.4733 94.5475 24.94C93.9315 25.3973 93.1661 25.626 92.2515 25.626C91.5235 25.626 90.8701 25.4627 90.2915 25.136C89.7221 24.8093 89.2741 24.3473 88.9475 23.75C88.6208 23.1433 88.4575 22.4433 88.4575 21.65C88.4575 20.8567 88.6161 20.1613 88.9335 19.564C89.2508 18.9667 89.6941 18.5093 90.2635 18.192C90.8421 17.8653 91.5048 17.702 92.2515 17.702C92.9795 17.702 93.6235 17.8607 94.1835 18.178C94.7435 18.4953 95.1728 18.934 95.4715 19.494C95.7795 20.0447 95.9335 20.67 95.9335 21.37ZM94.6175 21.104C94.6175 20.6187 94.5101 20.2033 94.2955 19.858C94.0808 19.5033 93.7868 19.2373 93.4135 19.06C93.0495 18.8733 92.6435 18.78 92.1955 18.78C91.5515 18.78 91.0008 18.9853 90.5435 19.396C90.0955 19.8067 89.8388 20.376 89.7735 21.104H94.6175ZM102.622 19.074C102.846 18.6353 103.163 18.2947 103.574 18.052C103.994 17.8093 104.502 17.688 105.1 17.688V19.004H104.764C103.336 19.004 102.622 19.7787 102.622 21.328V25.5H101.348V17.828H102.622V19.074ZM109.916 25.626C109.198 25.626 108.544 25.4627 107.956 25.136C107.378 24.8093 106.92 24.3473 106.584 23.75C106.258 23.1433 106.094 22.4433 106.094 21.65C106.094 20.866 106.262 20.1753 106.598 19.578C106.944 18.9713 107.41 18.5093 107.998 18.192C108.586 17.8653 109.244 17.702 109.972 17.702C110.7 17.702 111.358 17.8653 111.946 18.192C112.534 18.5093 112.996 18.9667 113.332 19.564C113.678 20.1613 113.85 20.8567 113.85 21.65C113.85 22.4433 113.673 23.1433 113.318 23.75C112.973 24.3473 112.502 24.8093 111.904 25.136C111.307 25.4627 110.644 25.626 109.916 25.626ZM109.916 24.506C110.374 24.506 110.803 24.3987 111.204 24.184C111.606 23.9693 111.928 23.6473 112.17 23.218C112.422 22.7887 112.548 22.266 112.548 21.65C112.548 21.034 112.427 20.5113 112.184 20.082C111.942 19.6527 111.624 19.3353 111.232 19.13C110.84 18.9153 110.416 18.808 109.958 18.808C109.492 18.808 109.062 18.9153 108.67 19.13C108.288 19.3353 107.98 19.6527 107.746 20.082C107.513 20.5113 107.396 21.034 107.396 21.65C107.396 22.2753 107.508 22.8027 107.732 23.232C107.966 23.6613 108.274 23.9833 108.656 24.198C109.039 24.4033 109.459 24.506 109.916 24.506ZM118.871 25.626C118.153 25.626 117.499 25.4627 116.911 25.136C116.333 24.8093 115.875 24.3473 115.539 23.75C115.213 23.1433 115.049 22.4433 115.049 21.65C115.049 20.866 115.217 20.1753 115.553 19.578C115.899 18.9713 116.365 18.5093 116.953 18.192C117.541 17.8653 118.199 17.702 118.927 17.702C119.655 17.702 120.313 17.8653 120.901 18.192C121.489 18.5093 121.951 18.9667 122.287 19.564C122.633 20.1613 122.805 20.8567 122.805 21.65C122.805 22.4433 122.628 23.1433 122.273 23.75C121.928 24.3473 121.457 24.8093 120.859 25.136C120.262 25.4627 119.599 25.626 118.871 25.626ZM118.871 24.506C119.329 24.506 119.758 24.3987 120.159 24.184C120.561 23.9693 120.883 23.6473 121.125 23.218C121.377 22.7887 121.503 22.266 121.503 21.65C121.503 21.034 121.382 20.5113 121.139 20.082C120.897 19.6527 120.579 19.3353 120.187 19.13C119.795 18.9153 119.371 18.808 118.913 18.808C118.447 18.808 118.017 18.9153 117.625 19.13C117.243 19.3353 116.935 19.6527 116.701 20.082C116.468 20.5113 116.351 21.034 116.351 21.65C116.351 22.2753 116.463 22.8027 116.687 23.232C116.921 23.6613 117.229 23.9833 117.611 24.198C117.994 24.4033 118.414 24.506 118.871 24.506ZM133.706 17.688C134.304 17.688 134.836 17.814 135.302 18.066C135.769 18.3087 136.138 18.6773 136.408 19.172C136.679 19.6667 136.814 20.2687 136.814 20.978V25.5H135.554V21.16C135.554 20.3947 135.363 19.8113 134.98 19.41C134.607 18.9993 134.098 18.794 133.454 18.794C132.792 18.794 132.264 19.0087 131.872 19.438C131.48 19.858 131.284 20.4693 131.284 21.272V25.5H130.024V21.16C130.024 20.3947 129.833 19.8113 129.45 19.41C129.077 18.9993 128.568 18.794 127.924 18.794C127.262 18.794 126.734 19.0087 126.342 19.438C125.95 19.858 125.754 20.4693 125.754 21.272V25.5H124.48V17.828H125.754V18.934C126.006 18.5327 126.342 18.2247 126.762 18.01C127.192 17.7953 127.663 17.688 128.176 17.688C128.82 17.688 129.39 17.8327 129.884 18.122C130.379 18.4113 130.748 18.836 130.99 19.396C131.205 18.8547 131.56 18.4347 132.054 18.136C132.549 17.8373 133.1 17.688 133.706 17.688ZM142.161 21.65C142.161 20.8567 142.319 20.166 142.637 19.578C142.954 18.9807 143.393 18.5187 143.953 18.192C144.522 17.8653 145.171 17.702 145.899 17.702C146.841 17.702 147.616 17.9307 148.223 18.388C148.839 18.8453 149.245 19.48 149.441 20.292H148.069C147.938 19.8253 147.681 19.4567 147.299 19.186C146.925 18.9153 146.459 18.78 145.899 18.78C145.171 18.78 144.583 19.032 144.135 19.536C143.687 20.0307 143.463 20.7353 143.463 21.65C143.463 22.574 143.687 23.288 144.135 23.792C144.583 24.296 145.171 24.548 145.899 24.548C146.459 24.548 146.925 24.4173 147.299 24.156C147.672 23.8947 147.929 23.5213 148.069 23.036H149.441C149.235 23.82 148.825 24.45 148.209 24.926C147.593 25.3927 146.823 25.626 145.899 25.626C145.171 25.626 144.522 25.4627 143.953 25.136C143.393 24.8093 142.954 24.3473 142.637 23.75C142.319 23.1527 142.161 22.4527 142.161 21.65ZM154.487 25.626C153.768 25.626 153.115 25.4627 152.527 25.136C151.948 24.8093 151.491 24.3473 151.155 23.75C150.828 23.1433 150.665 22.4433 150.665 21.65C150.665 20.866 150.833 20.1753 151.169 19.578C151.514 18.9713 151.981 18.5093 152.569 18.192C153.157 17.8653 153.815 17.702 154.543 17.702C155.271 17.702 155.929 17.8653 156.517 18.192C157.105 18.5093 157.567 18.9667 157.903 19.564C158.248 20.1613 158.421 20.8567 158.421 21.65C158.421 22.4433 158.243 23.1433 157.889 23.75C157.543 24.3473 157.072 24.8093 156.475 25.136C155.877 25.4627 155.215 25.626 154.487 25.626ZM154.487 24.506C154.944 24.506 155.373 24.3987 155.775 24.184C156.176 23.9693 156.498 23.6473 156.741 23.218C156.993 22.7887 157.119 22.266 157.119 21.65C157.119 21.034 156.997 20.5113 156.755 20.082C156.512 19.6527 156.195 19.3353 155.803 19.13C155.411 18.9153 154.986 18.808 154.529 18.808C154.062 18.808 153.633 18.9153 153.241 19.13C152.858 19.3353 152.55 19.6527 152.317 20.082C152.083 20.5113 151.967 21.034 151.967 21.65C151.967 22.2753 152.079 22.8027 152.303 23.232C152.536 23.6613 152.844 23.9833 153.227 24.198C153.609 24.4033 154.029 24.506 154.487 24.506ZM159.62 21.636C159.62 20.852 159.778 20.166 160.096 19.578C160.413 18.9807 160.847 18.5187 161.398 18.192C161.958 17.8653 162.583 17.702 163.274 17.702C163.871 17.702 164.426 17.842 164.94 18.122C165.453 18.3927 165.845 18.752 166.116 19.2V15.14H167.404V25.5H166.116V24.058C165.864 24.5153 165.49 24.8933 164.996 25.192C164.501 25.4813 163.922 25.626 163.26 25.626C162.578 25.626 161.958 25.458 161.398 25.122C160.847 24.786 160.413 24.3147 160.096 23.708C159.778 23.1013 159.62 22.4107 159.62 21.636ZM166.116 21.65C166.116 21.0713 165.999 20.5673 165.766 20.138C165.532 19.7087 165.215 19.382 164.814 19.158C164.422 18.9247 163.988 18.808 163.512 18.808C163.036 18.808 162.602 18.92 162.21 19.144C161.818 19.368 161.505 19.6947 161.272 20.124C161.038 20.5533 160.922 21.0573 160.922 21.636C160.922 22.224 161.038 22.7373 161.272 23.176C161.505 23.6053 161.818 23.9367 162.21 24.17C162.602 24.394 163.036 24.506 163.512 24.506C163.988 24.506 164.422 24.394 164.814 24.17C165.215 23.9367 165.532 23.6053 165.766 23.176C165.999 22.7373 166.116 22.2287 166.116 21.65ZM176.557 21.37C176.557 21.6127 176.543 21.8693 176.515 22.14H170.383C170.429 22.896 170.686 23.4887 171.153 23.918C171.629 24.338 172.203 24.548 172.875 24.548C173.425 24.548 173.883 24.422 174.247 24.17C174.62 23.9087 174.881 23.5633 175.031 23.134H176.403C176.197 23.8713 175.787 24.4733 175.171 24.94C174.555 25.3973 173.789 25.626 172.875 25.626C172.147 25.626 171.493 25.4627 170.915 25.136C170.345 24.8093 169.897 24.3473 169.571 23.75C169.244 23.1433 169.081 22.4433 169.081 21.65C169.081 20.8567 169.239 20.1613 169.557 19.564C169.874 18.9667 170.317 18.5093 170.887 18.192C171.465 17.8653 172.128 17.702 172.875 17.702C173.603 17.702 174.247 17.8607 174.807 18.178C175.367 18.4953 175.796 18.934 176.095 19.494C176.403 20.0447 176.557 20.67 176.557 21.37ZM175.241 21.104C175.241 20.6187 175.133 20.2033 174.919 19.858C174.704 19.5033 174.41 19.2373 174.037 19.06C173.673 18.8733 173.267 18.78 172.819 18.78C172.175 18.78 171.624 18.9853 171.167 19.396C170.719 19.8067 170.462 20.376 170.397 21.104H175.241Z" fill="white"/>
</svg>
