<svg width="40" height="40" viewBox="0 0 40 40" fill="none" xmlns="http://www.w3.org/2000/svg">
<g clip-path="url(#clip0_2_131)">
<mask id="mask0_2_131" style="mask-type:luminance" maskUnits="userSpaceOnUse" x="0" y="0" width="40" height="40">
<path d="M40 20C40 8.9543 31.0457 0 20 0C8.9543 0 0 8.9543 0 20C0 31.0457 8.9543 40 20 40C31.0457 40 40 31.0457 40 20Z" fill="white"/>
</mask>
<g mask="url(#mask0_2_131)">
<path d="M40 0H0V40H40V0Z" fill="#D4C7BF"/>
<path d="M37.4086 6.01361C26.9938 -0.24424 13.4779 3.12564 7.22006 13.5405C0.96221 23.9553 4.33209 37.4711 14.7469 43.729C25.1617 49.9868 38.6776 46.6169 44.9354 36.2021C51.1933 25.7873 47.8234 12.2715 37.4086 6.01361Z" fill="#523961"/>
<path d="M8.92853 25.7001C8.95268 26.7923 9.5601 27.827 10.6172 28.5766C11.6742 29.3262 13.0944 29.7293 14.5651 29.6973C16.0359 29.6652 17.4368 29.2006 18.4597 28.4056C19.4827 27.6106 20.0438 26.5504 20.0196 25.4582" fill="white"/>
<path d="M10.493 20.0645C10.4796 19.4531 10.0979 18.9656 9.64044 18.9758C9.18301 18.9859 8.8231 19.4898 8.83654 20.1013C8.84999 20.7127 9.23171 21.2002 9.68914 21.19C10.1466 21.1799 10.5065 20.676 10.493 20.0645Z" fill="white"/>
<path d="M19.3806 19.9094C19.3671 19.298 18.9854 18.8105 18.528 18.8207C18.0705 18.8308 17.7106 19.3347 17.7241 19.9461C17.7375 20.5576 18.1192 21.045 18.5767 21.0349C19.0341 21.0248 19.394 20.5209 19.3806 19.9094Z" fill="white"/>
</g>
</g>
<defs>
<clipPath id="clip0_2_131">
<rect width="40" height="40" fill="white"/>
</clipPath>
</defs>
</svg>
